<?xml version="1.0" encoding="utf-8"?>
<!-- Generator: Adobe Illustrator 25.1.0, SVG Export Plug-In . SVG Version: 6.00 Build 0)  -->
<svg version="1.1" id="Layer_1" xmlns="http://www.w3.org/2000/svg" xmlns:xlink="http://www.w3.org/1999/xlink" x="0px" y="0px"
	 viewBox="0 0 240 30" style="enable-background:new 0 0 240 30;" xml:space="preserve">
<style type="text/css">
	.st0{fill:#FF9D00;stroke:#FF9D00;stroke-miterlimit:10;}
	.st1{fill:#858585;stroke:#858585;stroke-miterlimit:10;}
</style>
<polygon class="st0" points="14.6,5 17.8,11.5 24.9,12.5 19.8,17.6 21,24.7 14.6,21.3 8.2,24.7 9.4,17.5 4.2,12.5 11.4,11.5 "/>
<polygon class="st0" points="38,5 41.2,11.5 48.4,12.5 43.2,17.6 44.4,24.7 38,21.3 31.6,24.7 32.9,17.5 27.7,12.5 34.8,11.5 "/>
<polygon class="st0" points="61.5,5 64.7,11.5 71.9,12.5 66.7,17.6 67.9,24.7 61.5,21.3 55.1,24.7 56.3,17.5 51.1,12.5 58.3,11.5 
	"/>
<polygon class="st0" points="85,5 88.2,11.5 95.3,12.5 90.1,17.6 91.4,24.7 85,21.3 78.6,24.7 79.8,17.5 74.6,12.5 81.8,11.5 "/>
<polygon class="st0" points="108.4,5 111.6,11.5 118.8,12.5 113.6,17.6 114.8,24.7 108.4,21.3 102,24.7 103.2,17.5 98.1,12.5 
	105.2,11.5 "/>
<polygon class="st0" points="131.9,5 135.1,11.5 142.2,12.5 137.1,17.6 138.3,24.7 131.9,21.3 125.5,24.7 126.7,17.5 121.5,12.5 
	128.7,11.5 "/>
<polygon class="st0" points="155.3,5 158.5,11.5 165.7,12.5 160.5,17.6 161.7,24.7 155.3,21.3 148.9,24.7 150.2,17.5 145,12.5 
	152.1,11.5 "/>
<polygon class="st1" points="178.8,5 182,11.5 189.2,12.5 184,17.6 185.2,24.7 178.8,21.3 172.4,24.7 173.6,17.5 168.4,12.5 
	175.6,11.5 "/>
<polygon class="st1" points="202.3,5 205.5,11.5 212.6,12.5 207.4,17.6 208.6,24.7 202.2,21.3 195.8,24.7 197.1,17.5 191.9,12.5 
	199.1,11.5 "/>
<polygon class="st1" points="225.7,5 228.9,11.5 236.1,12.5 230.9,17.6 232.1,24.7 225.7,21.3 219.3,24.7 220.5,17.5 215.4,12.5 
	222.5,11.5 "/>
</svg>
